<svg width="110" height="32" viewBox="0 0 110 32" fill="none" xmlns="http://www.w3.org/2000/svg">
<circle cx="16" cy="9.60001" r="4" stroke="white" stroke-width="3"/>
<path d="M23.3 26.4C23.3 27.2284 23.9716 27.9 24.8 27.9C25.6284 27.9 26.3 27.2284 26.3 26.4H23.3ZM5.70001 26.4C5.70001 27.2284 6.37159 27.9 7.20001 27.9C8.02844 27.9 8.70001 27.2284 8.70001 26.4H5.70001ZM8.70001 26.4C8.70001 22.3683 11.9683 19.1 16 19.1V16.1C10.3115 16.1 5.70001 20.7115 5.70001 26.4H8.70001ZM16 19.1C20.0317 19.1 23.3 22.3683 23.3 26.4H26.3C26.3 20.7115 21.6885 16.1 16 16.1V19.1Z" fill="white"/>
<path d="M48.2422 22L47.6797 19.8594H43.9688L43.3906 22H40L43.7266 10.5312H47.8438L51.6172 22H48.2422ZM47.0391 17.3281L46.5469 15.4531C46.4323 15.0365 46.2917 14.4974 46.125 13.8359C45.9635 13.1745 45.8568 12.7005 45.8047 12.4141C45.7578 12.6797 45.6641 13.1172 45.5234 13.7266C45.388 14.3359 45.0833 15.5365 44.6094 17.3281H47.0391ZM59.5156 19.2812C59.5156 20.2292 59.1927 20.9453 58.5469 21.4297C57.901 21.9141 56.974 22.1562 55.7656 22.1562C55.1094 22.1562 54.5391 22.1198 54.0547 22.0469C53.5703 21.9792 53.0755 21.8516 52.5703 21.6641V19.2188C53.0443 19.4271 53.5625 19.599 54.125 19.7344C54.6927 19.8698 55.1979 19.9375 55.6406 19.9375C56.3021 19.9375 56.6328 19.7865 56.6328 19.4844C56.6328 19.3281 56.5391 19.1901 56.3516 19.0703C56.1693 18.9453 55.6328 18.7057 54.7422 18.3516C53.9297 18.0182 53.362 17.6406 53.0391 17.2188C52.7161 16.7917 52.5547 16.2526 52.5547 15.6016C52.5547 14.7786 52.8724 14.138 53.5078 13.6797C54.1432 13.2214 55.0417 12.9922 56.2031 12.9922C56.7865 12.9922 57.3333 13.0573 57.8438 13.1875C58.3594 13.3125 58.8932 13.4974 59.4453 13.7422L58.6172 15.7109C58.2109 15.5286 57.7812 15.375 57.3281 15.25C56.875 15.1198 56.5052 15.0547 56.2188 15.0547C55.7188 15.0547 55.4688 15.1771 55.4688 15.4219C55.4688 15.5729 55.5547 15.7031 55.7266 15.8125C55.9036 15.9167 56.4089 16.1328 57.2422 16.4609C57.862 16.7161 58.3229 16.9661 58.625 17.2109C58.9323 17.4557 59.1562 17.7448 59.2969 18.0781C59.4427 18.4062 59.5156 18.8073 59.5156 19.2812ZM64.2812 22H61.2266V13.1484H64.2812V22ZM61.1484 10.9453C61.1484 10.487 61.276 10.1458 61.5312 9.92188C61.7865 9.69792 62.1979 9.58594 62.7656 9.58594C63.3333 9.58594 63.7474 9.70052 64.0078 9.92969C64.2682 10.1589 64.3984 10.4974 64.3984 10.9453C64.3984 11.8411 63.8542 12.2891 62.7656 12.2891C61.6875 12.2891 61.1484 11.8411 61.1484 10.9453ZM73.25 19.2812C73.25 20.2292 72.9271 20.9453 72.2812 21.4297C71.6354 21.9141 70.7083 22.1562 69.5 22.1562C68.8438 22.1562 68.2734 22.1198 67.7891 22.0469C67.3047 21.9792 66.8099 21.8516 66.3047 21.6641V19.2188C66.7786 19.4271 67.2969 19.599 67.8594 19.7344C68.4271 19.8698 68.9323 19.9375 69.375 19.9375C70.0365 19.9375 70.3672 19.7865 70.3672 19.4844C70.3672 19.3281 70.2734 19.1901 70.0859 19.0703C69.9036 18.9453 69.3672 18.7057 68.4766 18.3516C67.6641 18.0182 67.0964 17.6406 66.7734 17.2188C66.4505 16.7917 66.2891 16.2526 66.2891 15.6016C66.2891 14.7786 66.6068 14.138 67.2422 13.6797C67.8776 13.2214 68.776 12.9922 69.9375 12.9922C70.5208 12.9922 71.0677 13.0573 71.5781 13.1875C72.0938 13.3125 72.6276 13.4974 73.1797 13.7422L72.3516 15.7109C71.9453 15.5286 71.5156 15.375 71.0625 15.25C70.6094 15.1198 70.2396 15.0547 69.9531 15.0547C69.4531 15.0547 69.2031 15.1771 69.2031 15.4219C69.2031 15.5729 69.2891 15.7031 69.4609 15.8125C69.638 15.9167 70.1432 16.1328 70.9766 16.4609C71.5964 16.7161 72.0573 16.9661 72.3594 17.2109C72.6667 17.4557 72.8906 17.7448 73.0312 18.0781C73.1771 18.4062 73.25 18.8073 73.25 19.2812ZM79.2812 19.7422C79.6927 19.7422 80.1849 19.6406 80.7578 19.4375V21.6641C80.3464 21.8411 79.9531 21.9661 79.5781 22.0391C79.2083 22.1172 78.7734 22.1562 78.2734 22.1562C77.2474 22.1562 76.5078 21.9062 76.0547 21.4062C75.6016 20.901 75.375 20.1276 75.375 19.0859V15.4375H74.3047V14.1953L75.6641 13.2344L76.4531 11.375H78.4531V13.1484H80.625V15.4375H78.4531V18.8828C78.4531 19.4557 78.7292 19.7422 79.2812 19.7422ZM88.0781 22L87.4922 20.8281H87.4297C87.0182 21.3385 86.599 21.6875 86.1719 21.875C85.7448 22.0625 85.1927 22.1562 84.5156 22.1562C83.6823 22.1562 83.026 21.9062 82.5469 21.4062C82.0677 20.9062 81.8281 20.2031 81.8281 19.2969C81.8281 18.3542 82.1562 17.6536 82.8125 17.1953C83.4688 16.7318 84.4193 16.4714 85.6641 16.4141L87.1406 16.3672V16.2422C87.1406 15.513 86.7812 15.1484 86.0625 15.1484C85.4167 15.1484 84.5964 15.3672 83.6016 15.8047L82.7188 13.7891C83.75 13.2578 85.0521 12.9922 86.625 12.9922C87.7604 12.9922 88.638 13.2734 89.2578 13.8359C89.8828 14.3984 90.1953 15.1849 90.1953 16.1953V22H88.0781ZM85.8125 20C86.1823 20 86.4974 19.8828 86.7578 19.6484C87.0234 19.4141 87.1562 19.1094 87.1562 18.7344V18.0469L86.4531 18.0781C85.4479 18.1146 84.9453 18.4844 84.9453 19.1875C84.9453 19.7292 85.2344 20 85.8125 20ZM97.8594 22V17.1719C97.8594 16.5833 97.7734 16.1406 97.6016 15.8438C97.4349 15.5417 97.1641 15.3906 96.7891 15.3906C96.2734 15.3906 95.901 15.5964 95.6719 16.0078C95.4427 16.4193 95.3281 17.125 95.3281 18.125V22H92.2734V13.1484H94.5781L94.9609 14.2422H95.1406C95.401 13.8255 95.7604 13.513 96.2188 13.3047C96.6823 13.0964 97.2135 12.9922 97.8125 12.9922C98.7917 12.9922 99.5521 13.276 100.094 13.8438C100.641 14.4115 100.914 15.2109 100.914 16.2422V22H97.8594ZM107.328 19.7422C107.74 19.7422 108.232 19.6406 108.805 19.4375V21.6641C108.393 21.8411 108 21.9661 107.625 22.0391C107.255 22.1172 106.82 22.1562 106.32 22.1562C105.294 22.1562 104.555 21.9062 104.102 21.4062C103.648 20.901 103.422 20.1276 103.422 19.0859V15.4375H102.352V14.1953L103.711 13.2344L104.5 11.375H106.5V13.1484H108.672V15.4375H106.5V18.8828C106.5 19.4557 106.776 19.7422 107.328 19.7422Z" fill="white"/>
</svg>
