<svg width="41" height="18" viewBox="0 0 41 18" fill="none" xmlns="http://www.w3.org/2000/svg">
<path d="M4.6494 17.381C3.44999 17.381 2.50663 17.1451 1.81933 16.6733C1.1455 16.2015 0.673826 15.5612 0.404295 14.7524C0.134765 13.9301 0 12.9865 0 11.9216V6.07793C0 4.95908 0.134765 3.98851 0.404295 3.16623C0.673826 2.34394 1.1455 1.71038 1.81933 1.26553C2.50663 0.820689 3.44999 0.598267 4.6494 0.598267C5.78142 0.598267 6.66413 0.793728 7.29753 1.18465C7.9444 1.5621 8.40261 2.10804 8.67214 2.82249C8.94167 3.53693 9.07643 4.36596 9.07643 5.30956V6.68454H6.20593V5.26913C6.20593 4.8108 6.17898 4.39292 6.12508 4.01548C6.08465 3.63803 5.95662 3.34147 5.74099 3.12579C5.53885 2.89663 5.18172 2.78204 4.66961 2.78204C4.1575 2.78204 3.78016 2.90337 3.53758 3.14601C3.30848 3.37517 3.16024 3.69195 3.09286 4.09636C3.02548 4.48728 2.99179 4.93212 2.99179 5.43089V12.5484C2.99179 13.1415 3.03895 13.6335 3.13329 14.0245C3.22763 14.4019 3.39608 14.6917 3.63866 14.8939C3.89471 15.0826 4.23836 15.177 4.66961 15.177C5.16824 15.177 5.51863 15.0624 5.72078 14.8333C5.9364 14.5906 6.07117 14.2738 6.12508 13.8829C6.17898 13.492 6.20593 13.0539 6.20593 12.5686V11.0925H9.07643V12.4068C9.07643 13.3774 8.9484 14.2401 8.69235 14.995C8.4363 15.7364 7.98483 16.3228 7.33796 16.7542C6.70456 17.1721 5.80838 17.381 4.6494 17.381Z" fill="#595E90"/>
<path d="M11.1593 17.1586V0.780249H14.1511V15.0961H18.1132V17.1586H11.1593Z" fill="#595E90"/>
<path d="M23.9975 17.381C22.7846 17.381 21.8412 17.1586 21.1674 16.7137C20.4936 16.2689 20.0286 15.6353 19.7726 14.813C19.5165 13.9908 19.3885 13.0067 19.3885 11.8609V0.780249H22.2994V12.2046C22.2994 12.7169 22.3331 13.2022 22.4005 13.6605C22.4679 14.1053 22.6229 14.4693 22.8654 14.7524C23.1215 15.022 23.4988 15.1568 23.9975 15.1568C24.523 15.1568 24.9004 15.022 25.1295 14.7524C25.3721 14.4693 25.527 14.1053 25.5944 13.6605C25.6753 13.2022 25.7157 12.7169 25.7157 12.2046V0.780249H28.6064V11.8609C28.6064 13.0067 28.4784 13.9908 28.2223 14.813C27.9663 15.6353 27.5014 16.2689 26.8275 16.7137C26.1672 17.1586 25.2238 17.381 23.9975 17.381Z" fill="#595E90"/>
<path d="M30.9596 17.1586V0.780249H34.9823C35.71 0.780249 36.3636 0.847649 36.9431 0.982451C37.5361 1.11725 38.0415 1.34641 38.4592 1.66994C38.8905 1.97998 39.2207 2.4046 39.4498 2.94381C39.6789 3.48301 39.7934 4.16375 39.7934 4.98604C39.7934 5.64657 39.6991 6.21273 39.5104 6.68454C39.3352 7.15634 39.0724 7.53378 38.722 7.81686C38.3716 8.08647 37.9336 8.26845 37.4081 8.36281C38.0549 8.47065 38.5873 8.69981 39.005 9.05029C39.4363 9.3873 39.753 9.83214 39.9551 10.3848C40.1707 10.9375 40.2786 11.6048 40.2786 12.3866C40.2786 13.1685 40.1775 13.8627 39.9753 14.4693C39.7867 15.0624 39.4969 15.5612 39.1061 15.9656C38.7288 16.3565 38.2503 16.6531 37.6709 16.8553C37.1048 17.0575 36.4378 17.1586 35.6696 17.1586H30.9596ZM33.9513 15.0557H35.0834C35.9863 15.0557 36.5995 14.84 36.9229 14.4086C37.2463 13.9638 37.4081 13.283 37.4081 12.3664C37.4081 11.7059 37.3272 11.1734 37.1655 10.769C37.0172 10.3511 36.7612 10.0411 36.3973 9.83888C36.0469 9.63668 35.5753 9.53558 34.9823 9.53558H33.9513V15.0557ZM33.9513 7.47312H34.9621C35.555 7.47312 36.0132 7.3855 36.3367 7.21026C36.6601 7.03502 36.8825 6.76542 37.0038 6.40145C37.1385 6.03749 37.2059 5.57917 37.2059 5.02648C37.2059 4.44684 37.1048 4.002 36.9027 3.69195C36.714 3.36843 36.4243 3.15275 36.0335 3.04491C35.6426 2.92359 35.144 2.86293 34.5376 2.86293H33.9513V7.47312Z" fill="#595E90"/>
</svg>
