<svg width="64" height="64" viewBox="0 0 64 64" fill="none" xmlns="http://www.w3.org/2000/svg">
<g clip-path="url(#clip0_128_605)">
<path d="M22.3537 21.6303C22.7679 20.9129 22.5221 19.9955 21.8047 19.5813C21.0872 19.1671 20.1699 19.4129 19.7556 20.1303L22.3537 21.6303ZM26.2027 23.8526C26.6169 23.1351 26.3711 22.2177 25.6537 21.8035C24.9363 21.3893 24.0189 21.6351 23.6047 22.3526L26.2027 23.8526ZM20.938 26.9714C20.5238 27.6888 20.7696 28.6062 21.487 29.0204C22.2045 29.4346 23.1218 29.1888 23.5361 28.4714L20.938 26.9714ZM21.7583 31.5506C22.1725 30.8331 21.9267 29.9157 21.2092 29.5015C20.4918 29.0873 19.5744 29.3331 19.1602 30.0506L21.7583 31.5506ZM7.02039 48.1885L22.3537 21.6303L19.7556 20.1303L4.42231 46.6885L7.02039 48.1885ZM23.6047 22.3526L20.938 26.9714L23.5361 28.4714L26.2027 23.8526L23.6047 22.3526ZM19.1602 30.0506L8.27132 48.9107L10.8694 50.4107L21.7583 31.5506L19.1602 30.0506ZM7.28474 49.175C6.93931 48.9756 6.82095 48.5339 7.02039 48.1885L4.42231 46.6885C3.39445 48.4688 4.00443 50.7452 5.78474 51.7731L7.28474 49.175ZM5.78474 51.7731C7.56505 52.801 9.84153 52.191 10.8694 50.4107L8.27132 48.9107C8.07188 49.2561 7.63018 49.3745 7.28474 49.175L5.78474 51.7731Z" fill="#595E90"/>
<path d="M40.4158 18.903C39.9575 18.2128 39.0266 18.0248 38.3364 18.483C37.6463 18.9412 37.4582 19.8722 37.9165 20.5623L40.4158 18.903ZM35.1135 16.9301C35.6666 17.5469 36.6149 17.5986 37.2317 17.0455C37.8485 16.4924 37.9001 15.5441 37.3471 14.9273L35.1135 16.9301ZM42.8079 26.8985L44.2225 26.3998L42.8079 26.8985ZM8.04398 6.82868L7.76848 5.3542L8.04398 6.82868ZM41.9085 26.9462C30.0057 18.4497 22.301 13.9703 8.45541 7.63458L7.20711 10.3625C20.8806 16.6195 28.4195 21.0034 40.1655 29.3879L41.9085 26.9462ZM8.31948 8.30316C10.5008 7.89559 19.9154 6.55864 28.511 11.5213L30.011 8.92318C20.4609 3.40944 10.1463 4.90991 7.76848 5.3542L8.31948 8.30316ZM37.9165 20.5623C39.9719 23.6582 41.0357 26.3834 41.3932 27.3973L44.2225 26.3998C43.8104 25.2307 42.6474 22.2643 40.4158 18.903L37.9165 20.5623ZM28.511 11.5213C31.1684 13.0555 33.3469 14.9601 35.1135 16.9301L37.3471 14.9273C35.4048 12.7613 32.9857 10.6407 30.011 8.92318L28.511 11.5213ZM8.45541 7.63458C8.63005 7.71449 8.70825 7.93166 8.60422 8.11184L6.00615 6.61184C5.21787 7.97716 5.78808 9.71318 7.20711 10.3625L8.45541 7.63458ZM41.4173 27.0557C41.5214 26.8755 41.7502 26.8332 41.9085 26.9462L40.1655 29.3879C41.4375 30.2959 43.2272 29.9209 44.0154 28.5557L41.4173 27.0557ZM44.0154 28.5557C44.3806 27.9232 44.483 27.1385 44.2225 26.3998L41.3932 27.3973C41.3449 27.2604 41.3712 27.1355 41.4173 27.0557L44.0154 28.5557ZM8.60422 8.11184C8.55997 8.18849 8.46465 8.27604 8.31948 8.30316L7.76848 5.3542C6.99513 5.49869 6.36992 5.98176 6.00615 6.61184L8.60422 8.11184Z" fill="#595E90"/>
<path d="M39.1111 40.4444L38.1185 39.3198L39.1111 40.4444ZM48.4444 49.7778L49.8675 49.3034C49.7938 49.0825 49.6698 48.8818 49.5051 48.7171L48.4444 49.7778ZM49.6881 58.2521C49.9501 59.038 50.7995 59.4628 51.5854 59.2008C52.3714 58.9388 52.7961 58.0894 52.5341 57.3034L49.6881 58.2521ZM46.394 45.606C45.8082 45.0202 44.8584 45.0202 44.2726 45.606C43.6868 46.1918 43.6868 47.1415 44.2726 47.7273L46.394 45.606ZM41.1615 44.6162C41.7473 45.202 42.6971 45.202 43.2828 44.6162C43.8686 44.0304 43.8686 43.0807 43.2828 42.4949L41.1615 44.6162ZM36.7592 39.8333C35.624 39.8333 34.7037 38.913 34.7037 37.7778H31.7037C31.7037 40.5699 33.9671 42.8333 36.7592 42.8333V39.8333ZM34.7037 37.7778C34.7037 36.6425 35.624 35.7222 36.7592 35.7222V32.7222C33.9671 32.7222 31.7037 34.9857 31.7037 37.7778H34.7037ZM36.7592 35.7222C37.8945 35.7222 38.8148 36.6425 38.8148 37.7778H41.8148C41.8148 34.9857 39.5513 32.7222 36.7592 32.7222V35.7222ZM38.8148 37.7778C38.8148 38.3915 38.5477 38.941 38.1185 39.3198L40.1037 41.5691C41.1507 40.6449 41.8148 39.2879 41.8148 37.7778H38.8148ZM38.1185 39.3198C37.7552 39.6405 37.2816 39.8333 36.7592 39.8333V42.8333C38.0403 42.8333 39.2134 42.3548 40.1037 41.5691L38.1185 39.3198ZM47.0214 50.2521L49.6881 58.2521L52.5341 57.3034L49.8675 49.3034L47.0214 50.2521ZM44.2726 47.7273L47.3838 50.8384L49.5051 48.7171L46.394 45.606L44.2726 47.7273ZM38.0504 41.5051L41.1615 44.6162L43.2828 42.4949L40.1717 39.3838L38.0504 41.5051Z" fill="#595E90"/>
<path d="M52.1296 18.6667C52.8678 18.0152 53.3333 17.0619 53.3333 16C53.3333 14.0363 51.7415 12.4444 49.7778 12.4444C47.8141 12.4444 46.2222 14.0363 46.2222 16C46.2222 17.9637 47.8141 19.5556 49.7778 19.5556C50.6795 19.5556 51.5028 19.2199 52.1296 18.6667ZM52.1296 18.6667L56.8889 28V33.3333L59.5556 38.2222M59.5556 55.1111V43.1111" stroke="#595E90" stroke-width="3" stroke-linecap="round" stroke-linejoin="round"/>
<path d="M33.6907 56.5713C34.7353 54.9086 34.2341 52.7138 32.5714 51.6692C30.9086 50.6246 28.7138 51.1257 27.6692 52.7885C26.6246 54.4513 27.1257 56.646 28.7885 57.6906C30.4513 58.7352 32.646 58.2341 33.6907 56.5713ZM33.6907 56.5713L38.5831 59.6449" stroke="#595E90" stroke-width="3" stroke-linecap="round" stroke-linejoin="round"/>
</g>
<defs>
<clipPath id="clip0_128_605">
<rect width="64" height="64" fill="white"/>
</clipPath>
</defs>
</svg>
