<svg width="64" height="64" viewBox="0 0 64 64" fill="none" xmlns="http://www.w3.org/2000/svg">
<circle cx="32" cy="32" r="19.5556" stroke="#595E90" stroke-width="3" stroke-linecap="round" stroke-linejoin="round"/>
<path d="M53.7778 23.1111C57.9506 23.1111 61.3333 19.7284 61.3333 15.5556C61.3333 11.3827 57.9506 8 53.7778 8" stroke="#595E90" stroke-width="3" stroke-linecap="round" stroke-linejoin="round"/>
<path d="M54.2222 2.66667C56.1185 2.66667 57.9223 3.04933 59.5556 3.73913" stroke="#595E90" stroke-width="3" stroke-linecap="round" stroke-linejoin="round"/>
<path d="M20 11.3152C18.4318 8.79141 15.6343 7.11111 12.4444 7.11111C7.53523 7.11111 3.55554 11.0908 3.55554 16C3.55554 19.8147 5.9585 23.0681 9.33332 24.3292" stroke="#595E90" stroke-width="3" stroke-linecap="round" stroke-linejoin="round"/>
<path d="M7.54354 28.4444C6.25234 27.9836 5.05862 27.332 4 26.5254" stroke="#595E90" stroke-width="3" stroke-linecap="round" stroke-linejoin="round"/>
<path d="M50.1801 15.0249C50.3049 14.1514 50.3008 13.2443 50.1505 12.3275C49.3569 7.48287 44.7861 4.19894 39.9415 4.99261C38.8614 5.16957 37.8589 5.53426 36.9618 6.04788C36.5319 6.29404 36.1262 6.57439 35.7478 6.88469" stroke="#595E90" stroke-width="3" stroke-linecap="round" stroke-linejoin="round"/>
<path d="M56.7681 35.5556C59.7336 36.9962 61.7778 40.0372 61.7778 43.5556C61.7778 48.4648 57.7981 52.4444 52.8889 52.4444C51.0828 52.4444 49.4026 51.9058 48 50.9804" stroke="#595E90" stroke-width="3" stroke-linecap="round" stroke-linejoin="round"/>
<path d="M54.4304 57.1919C52.1383 57.6131 49.8779 57.3078 47.8779 56.4373" stroke="#595E90" stroke-width="3" stroke-linecap="round" stroke-linejoin="round"/>
<path d="M11.5555 46.2214C10.4393 47.7071 9.77777 49.5541 9.77777 51.5556C9.77777 56.4648 13.7575 60.4444 18.6667 60.4444C21.7698 60.4444 24.5015 58.8543 26.0915 56.4444" stroke="#595E90" stroke-width="3" stroke-linecap="round" stroke-linejoin="round"/>
<path d="M4.44446 52.334C4.44446 49.7073 5.30948 47.2833 6.76924 45.3333" stroke="#595E90" stroke-width="3" stroke-linecap="round" stroke-linejoin="round"/>
<path d="M35.1111 22.6667H31.3334C28.756 22.6667 26.6667 24.756 26.6667 27.3333V27.3333C26.6667 29.9107 28.756 32 31.3334 32H32.6667C35.244 32 37.3334 34.0893 37.3334 36.6667V36.6667C37.3334 39.244 35.244 41.3333 32.6667 41.3333H28.4445" stroke="#595E90" stroke-width="3" stroke-linecap="round" stroke-linejoin="round"/>
<path d="M32 20.4444V22.6667" stroke="#595E90" stroke-width="3" stroke-linecap="round" stroke-linejoin="round"/>
<path d="M32 42.2222V44.4444" stroke="#595E90" stroke-width="3" stroke-linecap="round" stroke-linejoin="round"/>
</svg>
