<svg width="64" height="64" viewBox="0 0 64 64" fill="none" xmlns="http://www.w3.org/2000/svg">
<path d="M32 16.6111C32.8284 16.6111 33.5 15.9395 33.5 15.1111C33.5 14.2827 32.8284 13.6111 32 13.6111V16.6111ZM38.2909 14.7158C37.5124 14.4324 36.6516 14.8337 36.3682 15.6121C36.0849 16.3906 36.4862 17.2514 37.2646 17.5348L38.2909 14.7158ZM47.3889 32C47.3889 40.4991 40.499 47.3889 32 47.3889V50.3889C42.1559 50.3889 50.3889 42.1559 50.3889 32H47.3889ZM32 47.3889C23.5009 47.3889 16.6111 40.4991 16.6111 32H13.6111C13.6111 42.1559 21.8441 50.3889 32 50.3889V47.3889ZM16.6111 32C16.6111 23.501 23.5009 16.6111 32 16.6111V13.6111C21.8441 13.6111 13.6111 21.8441 13.6111 32H16.6111ZM37.2646 17.5348C43.1732 19.6858 47.3889 25.3525 47.3889 32H50.3889C50.3889 24.0514 45.3465 17.2844 38.2909 14.7158L37.2646 17.5348Z" fill="#595E90"/>
<path d="M34.6666 4.44445C34.6666 5.9172 33.4727 7.11111 32 7.11111C30.5272 7.11111 29.3333 5.9172 29.3333 4.44445C29.3333 2.97169 30.5272 1.77778 32 1.77778C33.4727 1.77778 34.6666 2.97169 34.6666 4.44445Z" stroke="#595E90" stroke-width="3"/>
<path d="M19.5555 10.4456C20.831 9.70921 21.268 8.0783 20.5316 6.80285C19.7952 5.52741 18.1643 5.09041 16.8889 5.82678C15.6134 6.56316 15.1764 8.19407 15.9128 9.46952C16.6492 10.745 18.2801 11.182 19.5555 10.4456ZM19.5555 10.4456L23.5555 17.3738" stroke="#595E90" stroke-width="3"/>
<path d="M9.4204 15.8638C10.6959 16.6002 11.1329 18.2311 10.3965 19.5066C9.66009 20.782 8.02918 21.219 6.75374 20.4826C5.47829 19.7463 5.04129 18.1154 5.77767 16.8399C6.51405 15.5645 8.14496 15.1275 9.4204 15.8638Z" stroke="#595E90" stroke-width="3"/>
<path d="M10.4456 44.4444C9.70918 43.169 8.07828 42.732 6.80283 43.4684C5.52738 44.2048 5.09038 45.8357 5.82676 47.1111C6.56314 48.3866 8.19405 48.8236 9.4695 48.0872C10.7449 47.3508 11.1819 45.7199 10.4456 44.4444ZM10.4456 44.4444L17.3738 40.4444" stroke="#595E90" stroke-width="3"/>
<path d="M15.8638 54.4815C16.6002 53.206 18.2311 52.769 19.5066 53.5054C20.782 54.2418 21.219 55.8727 20.4826 57.1481C19.7462 58.4236 18.1153 58.8606 16.8399 58.1242C15.5644 57.3878 15.1274 55.7569 15.8638 54.4815Z" stroke="#595E90" stroke-width="3"/>
<path d="M32 56.8889C30.5273 56.8889 29.3334 58.0828 29.3334 59.5556C29.3334 61.0283 30.5273 62.2222 32 62.2222C33.4728 62.2222 34.6667 61.0283 34.6667 59.5556C34.6667 58.0828 33.4728 56.8889 32 56.8889ZM32 56.8889V48.8889" stroke="#595E90" stroke-width="3"/>
<path d="M44.4445 53.5544C43.169 54.2908 42.732 55.9217 43.4684 57.1971C44.2048 58.4726 45.8357 58.9096 47.1111 58.1732C48.3866 57.4368 48.8236 55.8059 48.0872 54.5305C47.3508 53.255 45.7199 52.818 44.4445 53.5544ZM44.4445 53.5544L40.4445 46.6262" stroke="#595E90" stroke-width="3"/>
<path d="M59.5556 34.6667C58.0828 34.6667 56.8889 33.4728 56.8889 32C56.8889 30.5272 58.0828 29.3333 59.5556 29.3333C61.0283 29.3333 62.2222 30.5272 62.2222 32C62.2222 33.4728 61.0283 34.6667 59.5556 34.6667Z" stroke="#595E90" stroke-width="3"/>
<path d="M53.5544 19.5556C54.2908 20.831 55.9217 21.268 57.1972 20.5316C58.4726 19.7952 58.9096 18.1643 58.1732 16.8889C57.4369 15.6134 55.806 15.1764 54.5305 15.9128C53.2551 16.6492 52.8181 18.2801 53.5544 19.5556ZM53.5544 19.5556L46.6262 23.5556" stroke="#595E90" stroke-width="3"/>
<path d="M24 34.6667C25.4727 34.6667 26.6666 33.4728 26.6666 32C26.6666 30.5272 25.4727 29.3333 24 29.3333C22.5272 29.3333 21.3333 30.5272 21.3333 32C21.3333 33.4728 22.5272 34.6667 24 34.6667ZM24 34.6667V40L26.6666 41.7778V47.5556" stroke="#595E90" stroke-width="3" stroke-linecap="round" stroke-linejoin="round"/>
<path d="M40.4444 34.6667C38.9717 34.6667 37.7778 33.4728 37.7778 32C37.7778 30.5272 38.9717 29.3333 40.4444 29.3333C41.9172 29.3333 43.1111 30.5272 43.1111 32C43.1111 33.4728 41.9172 34.6667 40.4444 34.6667ZM40.4444 34.6667V40L37.7778 41.7778V47.5556" stroke="#595E90" stroke-width="3" stroke-linecap="round" stroke-linejoin="round"/>
<path d="M32 26.6667C33.4727 26.6667 34.6666 25.4728 34.6666 24C34.6666 22.5272 33.4727 21.3333 32 21.3333C30.5272 21.3333 29.3333 22.5272 29.3333 24C29.3333 25.4728 30.5272 26.6667 32 26.6667ZM32 26.6667V33.7778M32 48.4444V37.7778" stroke="#595E90" stroke-width="3" stroke-linecap="round" stroke-linejoin="round"/>
</svg>
