<svg width="168" height="44" viewBox="0 0 168 44" fill="none" xmlns="http://www.w3.org/2000/svg">
<path d="M11.4616 43.0544C8.61395 43.0544 6.35954 42.4631 4.69839 41.2805C3.07114 40.0979 1.90156 38.4423 1.18964 36.3136C0.511617 34.1511 0.172607 31.6677 0.172607 28.8632V15.0775C0.172607 12.1717 0.545518 9.65444 1.29134 7.52576C2.03716 5.39709 3.30845 3.75834 5.1052 2.60953C6.93585 1.42692 9.41063 0.835632 12.5295 0.835632C15.5806 0.835632 17.9706 1.34245 19.6996 2.35611C21.4624 3.36976 22.7168 4.772 23.4626 6.56279C24.2084 8.35359 24.5813 10.4485 24.5813 12.8475V15.483H15.6823V12.1379C15.6823 11.2594 15.6145 10.4485 15.4789 9.70512C15.3772 8.96178 15.106 8.37047 14.6653 7.93122C14.2585 7.45818 13.5804 7.22166 12.6312 7.22166C11.6481 7.22166 10.9362 7.49198 10.4955 8.03259C10.0547 8.53942 9.76659 9.1814 9.63098 9.95854C9.52928 10.7357 9.47843 11.5466 9.47843 12.3913V31.3974C9.47843 32.3097 9.56318 33.1713 9.73269 33.9822C9.93609 34.7593 10.2751 35.4013 10.7497 35.9081C11.2582 36.3812 11.9702 36.6177 12.8855 36.6177C13.8347 36.6177 14.5636 36.3643 15.0721 35.8575C15.5806 35.3506 15.9366 34.6918 16.14 33.8808C16.3434 33.0699 16.4451 32.2083 16.4451 31.296V26.4811H12.7329V21.1594H24.6322V42.4462H18.6317L18.1232 39.0505C17.5808 40.1993 16.7841 41.1623 15.7332 41.9394C14.6822 42.6828 13.2584 43.0544 11.4616 43.0544Z" fill="#595E90"/>
<path d="M29.3121 42.4462V1.39314H40.652C43.4319 1.39314 45.8388 1.69724 47.8729 2.30543C49.9069 2.91363 51.4833 4.01175 52.6021 5.59981C53.7547 7.15409 54.331 9.36724 54.331 12.2393C54.331 13.9287 54.1954 15.4323 53.9242 16.75C53.653 18.0678 53.1445 19.2166 52.3987 20.1965C51.6867 21.1426 50.6528 21.9366 49.2967 22.5786L54.9412 42.4462H45.5337L41.0079 24.0484H38.4145V42.4462H29.3121ZM38.4145 18.828H40.9571C42.2453 18.828 43.2454 18.6084 43.9573 18.1692C44.6692 17.6961 45.1608 17.0372 45.432 16.1925C45.7371 15.314 45.8897 14.2666 45.8897 13.0502C45.8897 11.2932 45.5676 9.92475 44.9235 8.94488C44.2794 7.96501 43.0928 7.47508 41.3639 7.47508H38.4145V18.828Z" fill="#595E90"/>
<path d="M70.1863 43.0544C67.1014 43.0544 64.6605 42.5138 62.8637 41.4326C61.067 40.3514 59.7787 38.7971 58.999 36.7698C58.2193 34.7424 57.8294 32.3266 57.8294 29.5221V14.2666C57.8294 11.4283 58.2193 9.01246 58.999 7.01894C59.7787 5.02541 61.067 3.50493 62.8637 2.45748C64.6605 1.37625 67.1014 0.835632 70.1863 0.835632C73.3052 0.835632 75.763 1.37625 77.5598 2.45748C79.3905 3.50493 80.6956 5.02541 81.4754 7.01894C82.2551 9.01246 82.645 11.4283 82.645 14.2666V29.5221C82.645 32.3266 82.2551 34.7424 81.4754 36.7698C80.6956 38.7971 79.3905 40.3514 77.5598 41.4326C75.763 42.5138 73.3052 43.0544 70.1863 43.0544ZM70.1863 36.6177C71.1356 36.6177 71.8305 36.3812 72.2712 35.9081C72.712 35.4351 73.0001 34.8269 73.1357 34.0836C73.2713 33.3402 73.3391 32.58 73.3391 31.8028V12.0365C73.3391 11.2256 73.2713 10.4654 73.1357 9.75581C73.0001 9.01246 72.712 8.40426 72.2712 7.93122C71.8305 7.45818 71.1356 7.22166 70.1863 7.22166C69.3049 7.22166 68.6439 7.45818 68.2031 7.93122C67.7624 8.40426 67.4743 9.01246 67.3387 9.75581C67.2031 10.4654 67.1353 11.2256 67.1353 12.0365V31.8028C67.1353 32.58 67.1861 33.3402 67.2878 34.0836C67.4234 34.8269 67.6946 35.4351 68.1014 35.9081C68.5421 36.3812 69.2371 36.6177 70.1863 36.6177Z" fill="#595E90"/>
<path d="M90.4729 42.4462L85.4895 1.39314H93.2189L95.6598 25.3154L98.7617 1.44382H104.813L108.068 25.1634L110.559 1.39314H118.187L113.254 42.4462H105.322L101.813 17.6623L98.5074 42.4462H90.4729Z" fill="#595E90"/>
<path d="M125.32 42.4462V8.13396H119.116V1.39314H140.626V8.13396H134.473V42.4462H125.32Z" fill="#595E90"/>
<path d="M143.388 42.4462V1.39314H152.49V18.0171H158.847V1.39314H168V42.4462H158.847V24.5045H152.49V42.4462H143.388Z" fill="#595E90"/>
</svg>
