<svg width="106" height="43" viewBox="0 0 106 43" fill="none" xmlns="http://www.w3.org/2000/svg">
<path d="M0.00561523 41.9697V0.91658H9.10803V17.5406H15.4645V0.91658H24.6177V41.9697H15.4645V24.028H9.10803V41.9697H0.00561523Z" fill="#595E90"/>
<path d="M41.6708 42.5779C38.5859 42.5779 36.145 42.0373 34.3482 40.956C32.5515 39.8748 31.2632 38.3205 30.4835 36.2932C29.7038 34.2659 29.3139 31.85 29.3139 29.0456V13.79C29.3139 10.9518 29.7038 8.5359 30.4835 6.54238C31.2632 4.54885 32.5515 3.02837 34.3482 1.98092C36.145 0.899687 38.5859 0.35907 41.6708 0.35907C44.7897 0.35907 47.2476 0.899687 49.0443 1.98092C50.875 3.02837 52.1801 4.54885 52.9599 6.54238C53.7396 8.5359 54.1295 10.9518 54.1295 13.79V29.0456C54.1295 31.85 53.7396 34.2659 52.9599 36.2932C52.1801 38.3205 50.875 39.8748 49.0443 40.956C47.2476 42.0373 44.7897 42.5779 41.6708 42.5779ZM41.6708 36.1412C42.6201 36.1412 43.315 35.9046 43.7558 35.4316C44.1965 34.9586 44.4846 34.3504 44.6202 33.607C44.7558 32.8637 44.8236 32.1034 44.8236 31.3263V11.56C44.8236 10.7491 44.7558 9.98881 44.6202 9.27925C44.4846 8.5359 44.1965 7.92771 43.7558 7.45467C43.315 6.98163 42.6201 6.74511 41.6708 6.74511C40.7894 6.74511 40.1283 6.98163 39.6876 7.45467C39.2469 7.92771 38.9588 8.5359 38.8232 9.27925C38.6876 9.98881 38.6198 10.7491 38.6198 11.56V31.3263C38.6198 32.1034 38.6706 32.8637 38.7723 33.607C38.9079 34.3504 39.1791 34.9586 39.5859 35.4316C40.0266 35.9046 40.7216 36.1412 41.6708 36.1412Z" fill="#595E90"/>
<path d="M58.6521 41.9697V0.91658H69.0766C72.6701 0.91658 75.4669 1.37273 77.4671 2.28502C79.4673 3.16352 80.8741 4.56575 81.6878 6.49169C82.5014 8.38385 82.9082 10.8504 82.9082 13.8914V28.7921C82.9082 31.8669 82.5014 34.3842 81.6878 36.3439C80.8741 38.2698 79.4673 39.689 77.4671 40.6012C75.5008 41.5135 72.7379 41.9697 69.1783 41.9697H58.6521ZM67.7545 35.685H69.1783C70.5682 35.685 71.5683 35.4823 72.1786 35.0768C72.7888 34.6714 73.1617 34.0632 73.2973 33.2522C73.4668 32.4413 73.5515 31.4277 73.5515 30.2113V12.3202C73.5515 11.1038 73.4498 10.124 73.2464 9.38062C73.0769 8.63727 72.6871 8.09665 72.0769 7.75877C71.4666 7.42088 70.4835 7.25193 69.1275 7.25193H67.7545V35.685Z" fill="#595E90"/>
<path d="M87.4308 41.9697V0.91658H96.5332V35.8371H105.992V41.9697H87.4308Z" fill="#595E90"/>
</svg>
