<svg width="76" height="32" viewBox="0 0 76 32" fill="none" xmlns="http://www.w3.org/2000/svg">
<path d="M1.59998 6.39999V25.6H30.4V6.39999L16.4 18.4L12 14.8324M1.59998 6.39999H23M1.59998 6.39999L8 11.5892" stroke="white" stroke-width="3" stroke-linecap="round" stroke-linejoin="round"/>
<path d="M46.2109 22L43.875 13.7734H43.8047C43.9141 15.1745 43.9688 16.263 43.9688 17.0391V22H41.2344V10.5781H45.3438L47.7266 18.6875H47.7891L50.125 10.5781H54.2422V22H51.4062V16.9922C51.4062 16.7318 51.4089 16.4427 51.4141 16.125C51.4245 15.8073 51.4609 15.0286 51.5234 13.7891H51.4531L49.1484 22H46.2109ZM62.2969 22L61.7109 20.8281H61.6484C61.237 21.3385 60.8177 21.6875 60.3906 21.875C59.9635 22.0625 59.4115 22.1562 58.7344 22.1562C57.901 22.1562 57.2448 21.9062 56.7656 21.4062C56.2865 20.9062 56.0469 20.2031 56.0469 19.2969C56.0469 18.3542 56.375 17.6536 57.0312 17.1953C57.6875 16.7318 58.638 16.4714 59.8828 16.4141L61.3594 16.3672V16.2422C61.3594 15.513 61 15.1484 60.2812 15.1484C59.6354 15.1484 58.8151 15.3672 57.8203 15.8047L56.9375 13.7891C57.9688 13.2578 59.2708 12.9922 60.8438 12.9922C61.9792 12.9922 62.8568 13.2734 63.4766 13.8359C64.1016 14.3984 64.4141 15.1849 64.4141 16.1953V22H62.2969ZM60.0312 20C60.401 20 60.7161 19.8828 60.9766 19.6484C61.2422 19.4141 61.375 19.1094 61.375 18.7344V18.0469L60.6719 18.0781C59.6667 18.1146 59.1641 18.4844 59.1641 19.1875C59.1641 19.7292 59.4531 20 60.0312 20ZM69.5625 22H66.5078V13.1484H69.5625V22ZM66.4297 10.9453C66.4297 10.487 66.5573 10.1458 66.8125 9.92188C67.0677 9.69792 67.4792 9.58594 68.0469 9.58594C68.6146 9.58594 69.0286 9.70052 69.2891 9.92969C69.5495 10.1589 69.6797 10.4974 69.6797 10.9453C69.6797 11.8411 69.1354 12.2891 68.0469 12.2891C66.9688 12.2891 66.4297 11.8411 66.4297 10.9453ZM74.75 22H71.6953V9.84375H74.75V22Z" fill="white"/>
</svg>
